# Blender 4.4.3
# www.blender.org
mtllib Untitled.mtl
o Cylinder
v 0.000000 0.150000 -0.150000
v 0.000628 0.000363 0.250538
v 0.129904 -0.075000 -0.150000
v -0.129904 -0.075000 -0.150000
v 0.000000 0.150000 -0.037598
v 0.129904 -0.075000 -0.037598
v -0.129904 -0.075000 -0.037598
v -0.326482 0.142934 -0.228465
v -0.430513 0.188479 -0.211451
v -0.378484 0.278596 -0.211451
v -0.287026 0.211275 -0.228465
v 0.039457 -0.354209 -0.228465
v 0.052029 -0.467074 -0.211451
v -0.052029 -0.467074 -0.211451
v -0.039457 -0.354209 -0.228465
v 0.287026 0.211275 -0.228465
v 0.378484 0.278596 -0.211451
v 0.430513 0.188478 -0.211451
v 0.326482 0.142934 -0.228465
v -0.284317 0.127689 -0.448983
v -0.252740 0.182381 -0.448983
v 0.031576 -0.310070 -0.448983
v -0.031576 -0.310070 -0.448983
v 0.252740 0.182381 -0.448983
v 0.284317 0.127689 -0.448983
v 0.000628 0.083637 0.022983
v 0.072746 -0.041275 0.022983
v -0.074002 -0.042725 0.022983
vn 0.8519 0.4918 0.1800
vn 0.0097 -0.9831 0.1830
vn -0.8465 0.5000 0.1830
vn -0.0000 -0.0000 -1.0000
vn -0.6148 -0.7548 -0.2286
vn -0.3510 0.2027 0.9142
vn 0.3463 0.9099 -0.2286
vn 0.2343 -0.1353 -0.9627
vn 0.9611 -0.1551 -0.2286
vn -0.0000 -0.4054 0.9142
vn -0.9611 -0.1551 -0.2286
vn -0.0000 0.2705 -0.9627
vn -0.3463 0.9099 -0.2286
vn 0.3510 0.2027 0.9142
vn 0.6148 -0.7548 -0.2286
vn -0.2343 -0.1353 -0.9627
vn -0.4029 -0.9151 -0.0138
vn -0.7225 0.4171 -0.5514
vn 0.5911 0.8065 -0.0138
vn 0.8492 -0.4903 0.1963
vn 0.9940 0.1086 -0.0138
vn -0.0000 -0.8342 -0.5514
vn -0.9940 0.1086 -0.0138
vn -0.0000 0.9806 0.1963
vn -0.5911 0.8065 -0.0138
vn 0.7225 0.4171 -0.5514
vn 0.4029 -0.9151 -0.0138
vn -0.8492 -0.4903 0.1963
vn -0.7589 0.4418 0.4784
vn 0.0031 -0.8781 0.4784
vn 0.7624 0.4402 0.4743
vt 1.000000 0.803612
vt 0.666667 1.000000
vt 0.666667 0.803612
vt 0.333333 1.000000
vt 0.333333 0.803613
vt -0.000000 1.000000
vt -0.000000 0.803612
vt 0.750000 0.490000
vt 0.957846 0.130000
vt 0.542154 0.130000
vt 0.333333 0.751329
vt 0.333333 0.500000
vt -0.000000 0.751329
vt -0.000000 0.500000
vt 0.666667 0.751329
vt 0.666667 0.500000
vt 1.000000 0.751329
vt 1.000000 0.500000
s 0
usemtl Material.001
f 26/1/1 2/2/1 27/3/1
f 27/3/2 2/4/2 28/5/2
f 28/5/3 2/6/3 26/7/3
f 1/8/4 3/9/4 4/10/4
f 7/11/5 9/11/5 8/12/5 4/12/5
f 5/13/6 10/13/6 9/11/6 7/11/6
f 1/14/7 11/14/7 10/13/7 5/13/7
f 4/12/8 8/12/8 11/14/8 1/14/8
f 6/15/9 13/15/9 12/16/9 3/16/9
f 7/11/10 14/11/10 13/15/10 6/15/10
f 4/12/11 15/12/11 14/11/11 7/11/11
f 3/16/12 12/16/12 15/12/12 4/12/12
f 5/17/13 17/17/13 16/18/13 1/18/13
f 6/15/14 18/15/14 17/17/14 5/17/14
f 3/16/15 19/16/15 18/15/15 6/15/15
f 1/18/16 16/18/16 19/16/16 3/16/16
f 9/11/17 20/12/17 8/12/17
f 10/13/18 21/13/18 20/11/18 9/11/18
f 11/14/19 21/13/19 10/13/19
f 8/12/20 20/12/20 21/14/20 11/14/20
f 13/15/21 22/16/21 12/16/21
f 14/11/22 23/11/22 22/15/22 13/15/22
f 15/12/23 23/11/23 14/11/23
f 12/16/24 22/16/24 23/12/24 15/12/24
f 17/17/25 24/18/25 16/18/25
f 18/15/26 25/15/26 24/17/26 17/17/26
f 19/16/27 25/15/27 18/15/27
f 16/18/28 24/18/28 25/16/28 19/16/28
f 7/11/29 28/5/29 26/7/29 5/13/29
f 6/15/30 27/3/30 28/5/30 7/11/30
f 5/17/31 26/1/31 27/3/31 6/15/31
